<?xml version="1.0" encoding="UTF-8"?>
<svg id="Layer_1" xmlns="http://www.w3.org/2000/svg" version="1.1" viewBox="0 0 420.5 105.8">
  <!-- Generator: Adobe Illustrator 29.4.0, SVG Export Plug-In . SVG Version: 2.1.0 Build 152)  -->
  <defs>
    <style>
      .st0 {
        display: none;
        fill: #f1f2f2;
      }

      .st1 {
        fill: #fff;
      }

      .st2 {
        fill: #808285;
      }
    </style>
  </defs>
  <rect class="st0" x="-5.1" y="-125" width="420.5" height="420.5"/>
  <g>
    <path class="st2" d="M23.1,53.7c-1.1,0-2.2-.3-3.3-.7-1-.4-1.9-1-2.7-1.8-.8-.7-1.4-1.6-1.8-2.6s-.7-2.1-.7-3.2v-15.5c0-1.1.2-2.2.7-3.2.4-1,1-1.9,1.8-2.6.8-.7,1.7-1.3,2.7-1.8,1-.4,2.1-.7,3.3-.7h28.3c1.1,0,2.2.2,3.2.7s1.9,1,2.6,1.8c1,1,1.6,1.9,1.8,2.7l.7,3.2v6.5c0,0-8.7,2.6-8.7,2.6v-7.5h-27.9v13.9l28.3.5c1.1,0,2.2.2,3.2.7,1,.4,1.9,1,2.7,1.8.8.8,1.4,1.6,1.8,2.7s.7,2.1.7,3.2v17.3c0,1.1-.2,2.2-.7,3.2-.4,1-1,1.9-1.8,2.7s-1.6,1.4-2.6,1.8c-1,.4-2.1.7-3.2.7h-29.1c-1.1,0-2.2-.2-3.3-.7-1-.4-1.9-1-2.7-1.8-.8-.8-1.4-1.6-1.8-2.7-.4-1-.7-2.1-.7-3.2v-7.5l9.2-1.6v7.5h27.9v-15.8l-27.9-.5Z"/>
    <path class="st2" d="M69.9,29.8c0-1.1.2-2.2.7-3.2.4-1,1-1.9,1.8-2.6.8-.7,1.6-1.3,2.7-1.8s2.1-.7,3.2-.7h31.7c1.1,0,2.2.2,3.2.7s1.9,1,2.7,1.8c.8.7,1.4,1.6,1.8,2.6.4,1,.7,2.1.7,3.2v7.5h-13v-7.5h-25v41.7h25v-7.5h13v7.5c0,1.1-.2,2.2-.7,3.2-.4,1-1,1.9-1.8,2.7-.8.8-1.6,1.4-2.7,1.8-1,.4-2.1.7-3.2.7h-31.7c-1.1,0-2.2-.2-3.2-.7-1-.4-1.9-1-2.7-1.8-.8-.8-1.4-1.6-1.8-2.7-.4-1-.7-2.1-.7-3.2V29.8Z"/>
    <path class="st2" d="M140.5,21.5v58.4h-9.6V21.5h9.6Z"/>
    <path class="st1" d="M153,29.8c0-1.1.2-2.2.7-3.2.4-1,1-1.9,1.8-2.6.8-.7,1.7-1.3,2.7-1.8,1-.4,2.1-.7,3.3-.7h33.3c1.1,0,2.2.2,3.2.7s1.9,1,2.7,1.8c.6.6,1.2,1.5,1.8,2.7.3.7.5,1.8.7,3.2l.2,5-9,2.5v-7.1h-31.3v40h31.3v-12.9h-13.3c0,0-2.2-8.3-2.2-8.3h24.2v22.5c0,1.1-.2,2.2-.7,3.2-.4,1-1,1.9-1.8,2.7-.8.8-1.6,1.4-2.6,1.8-1,.4-2.1.7-3.2.7h-33.3c-1.1,0-2.2-.2-3.3-.7-1-.4-1.9-1-2.7-1.8-.8-.8-1.4-1.6-1.8-2.7-.4-1-.7-2.1-.7-3.2V29.8Z"/>
    <path class="st1" d="M215.2,21.5h43.8l-1.3,10-32.8-.2v13.2c0,0,19.5-.2,19.5-.2v11.1c0,0-19.5,0-19.5,0v13.1h32.4c0,0,1.8,11.3,1.8,11.3h-43.8V21.5Z"/>
    <path class="st1" d="M266.4,21.5h46.7v8.3h-19.2v50h-8.3V29.8h-19.2v-8.3Z"/>
    <path class="st2" d="M318.8,74h5.8v5.8h-5.8v-5.8Z"/>
    <path class="st2" d="M354.4,73.3c0,2.2-.1,3.6-.3,4.1-.1.4-.4.8-.9,1.3s-.8.6-1.4.8c-.6.2-1.7.3-3.2.3h-12.7c-.5,0-1.3,0-2.3-.3-1.1-.2-1.8-.5-2.1-.9-.4-.7-.7-1.1-.9-1.3-.2-.3-.3-1.7-.3-4.1v-8.2c0-4.1,0-6.6,0-7.4,0-1.2.1-2.4.3-3.5,0-.4.3-.8.8-1.2.3-.3,1-.6,2.1-.9.9-.2,1.6-.3,2.3-.3h12.7c1.6,0,2.7,0,3.2.3.6.2,1.1.5,1.4.9.4.4.7.8.9,1.3.2.4.3,1.5.3,3.5v7.8c0,3.8,0,6.4,0,7.8ZM335.2,56.5v18.7h14.6v-18.7h-14.6Z"/>
    <path class="st2" d="M380.3,61.9c0,2.1-.7,3.7-2,4.6-1.8,1.4-3.9,2-6.2,2l8.2,11.3h-5.6l-6.9-11.2h-4.4v11.2h-4v-28h13.9c4.7,0,7,2.3,7,6.8v3.2ZM363.4,64.7h7.1c1.8,0,3.1-.3,3.8-.8,1.2-.8,1.8-1.4,1.8-1.6v-3.1c0-1-.3-1.8-.8-2.3-.7-.6-1.4-1-2.2-1h-9.7v8.8Z"/>
    <path class="st2" d="M385.4,55.9c0-.5.1-1.1.3-1.6s.5-.9.9-1.3c.4-.4.8-.6,1.3-.9s1-.3,1.6-.3h16c.5,0,1,.1,1.5.3.5.2.9.5,1.3.9.3.3.6.7.9,1.3.2.4.3.9.3,1.5v2.4c.1,0-4.2,1.2-4.2,1.2v-3.4h-15v19.2h15v-6.2h-6.4s-1.1-4-1.1-4h11.6v10.8c0,.5-.1,1.1-.3,1.6s-.5.9-.9,1.3c-.4.4-.8.7-1.3.9-.5.2-1,.3-1.5.3h-16c-.5,0-1.1-.1-1.6-.3-.5-.2-.9-.5-1.3-.9-.4-.4-.7-.8-.9-1.3s-.3-1-.3-1.6v-20Z"/>
  </g>
</svg>